<mxfile host="app.diagrams.net" modified="2023-05-03T12:35:51.229Z" agent="Mozilla/5.0 (Windows NT 10.0; Win64; x64) AppleWebKit/537.36 (KHTML, like Gecko) Chrome/112.0.0.0 Safari/537.36" version="21.2.4" etag="7dOHeZ_GKjO1-Yy0JAoD" type="device">
  <diagram id="knNgoexQvRXbUhE3yVFn" name="PÃ¡gina-1">
    <mxGraphModel dx="874" dy="476" grid="1" gridSize="10" guides="1" tooltips="1" connect="1" arrows="1" fold="1" page="1" pageScale="1" pageWidth="827" pageHeight="1169" background="#ffffff" math="0" shadow="0">
      <root>
        <mxCell id="0" />
        <mxCell id="1" parent="0" />
        <mxCell id="2TU4tyCa0fN-0bZY0Uv4-1" value="Nodes:&lt;br&gt;&lt;ul&gt;&lt;li&gt;Continuous Integration (CI) server&lt;/li&gt;&lt;li&gt;Staging environment&lt;/li&gt;&lt;li&gt;Pre-production environment&lt;/li&gt;&lt;li&gt;Production environment&lt;/li&gt;&lt;/ul&gt;" style="text;html=1;strokeColor=none;fillColor=none;align=left;verticalAlign=middle;whiteSpace=wrap;rounded=0;fontFamily=Coming Soon;fontSource=https%3A%2F%2Ffonts.googleapis.com%2Fcss%3Ffamily%3DComing%2BSoon;fontStyle=1" vertex="1" parent="1">
          <mxGeometry x="40" y="40" width="200" height="120" as="geometry" />
        </mxCell>
        <mxCell id="2TU4tyCa0fN-0bZY0Uv4-2" value="&lt;h2&gt;&lt;font data-font-src=&quot;https://fonts.googleapis.com/css?family=Coming+Soon&quot; face=&quot;Coming Soon&quot;&gt;&lt;b&gt;&lt;u&gt;Education Assessment - Deployment Diagram&lt;/u&gt;&lt;/b&gt;&lt;/font&gt;&lt;/h2&gt;" style="text;html=1;strokeColor=none;fillColor=none;align=center;verticalAlign=middle;whiteSpace=wrap;rounded=0;" vertex="1" parent="1">
          <mxGeometry x="274" y="50" width="280" height="30" as="geometry" />
        </mxCell>
        <mxCell id="2TU4tyCa0fN-0bZY0Uv4-22" value="&amp;lt;&amp;lt;initiate&amp;gt;&amp;gt;" style="edgeStyle=orthogonalEdgeStyle;rounded=0;orthogonalLoop=1;jettySize=auto;html=1;exitX=0;exitY=0;exitDx=200;exitDy=75;exitPerimeter=0;" edge="1" parent="1" source="2TU4tyCa0fN-0bZY0Uv4-3">
          <mxGeometry relative="1" as="geometry">
            <mxPoint x="290" y="510" as="targetPoint" />
            <Array as="points">
              <mxPoint x="409" y="380" />
              <mxPoint x="291" y="380" />
            </Array>
          </mxGeometry>
        </mxCell>
        <mxCell id="2TU4tyCa0fN-0bZY0Uv4-23" value="&amp;lt;&amp;lt;initiate&amp;gt;&amp;gt;" style="edgeStyle=orthogonalEdgeStyle;rounded=0;orthogonalLoop=1;jettySize=auto;html=1;exitX=0;exitY=0;exitDx=200;exitDy=75;exitPerimeter=0;" edge="1" parent="1" source="2TU4tyCa0fN-0bZY0Uv4-3">
          <mxGeometry relative="1" as="geometry">
            <mxPoint x="530" y="510" as="targetPoint" />
            <Array as="points">
              <mxPoint x="409" y="380" />
              <mxPoint x="531" y="380" />
            </Array>
          </mxGeometry>
        </mxCell>
        <mxCell id="2TU4tyCa0fN-0bZY0Uv4-24" value="&amp;lt;&amp;lt;build artefacts&amp;gt;&amp;gt;" style="edgeStyle=orthogonalEdgeStyle;rounded=0;orthogonalLoop=1;jettySize=auto;html=1;entryX=0;entryY=0;entryDx=0;entryDy=65;entryPerimeter=0;" edge="1" parent="1" source="2TU4tyCa0fN-0bZY0Uv4-3" target="2TU4tyCa0fN-0bZY0Uv4-6">
          <mxGeometry x="-0.4563" relative="1" as="geometry">
            <mxPoint as="offset" />
          </mxGeometry>
        </mxCell>
        <mxCell id="2TU4tyCa0fN-0bZY0Uv4-3" value="CI server" style="verticalAlign=top;align=center;spacingTop=8;spacingLeft=2;spacingRight=12;shape=cube;size=10;direction=south;fontStyle=0;html=1;whiteSpace=wrap;" vertex="1" parent="1">
          <mxGeometry x="344" y="160" width="140" height="200" as="geometry" />
        </mxCell>
        <mxCell id="2TU4tyCa0fN-0bZY0Uv4-4" value="Service App" style="shape=module;align=left;spacingLeft=20;align=center;verticalAlign=top;whiteSpace=wrap;html=1;" vertex="1" parent="1">
          <mxGeometry x="354" y="220" width="100" height="50" as="geometry" />
        </mxCell>
        <mxCell id="2TU4tyCa0fN-0bZY0Uv4-5" value="Version control" style="shape=module;align=left;spacingLeft=20;align=center;verticalAlign=top;whiteSpace=wrap;html=1;" vertex="1" parent="1">
          <mxGeometry x="354" y="290" width="100" height="50" as="geometry" />
        </mxCell>
        <mxCell id="2TU4tyCa0fN-0bZY0Uv4-6" value="Staging ENV" style="verticalAlign=top;align=center;spacingTop=8;spacingLeft=2;spacingRight=12;shape=cube;size=10;direction=south;fontStyle=0;html=1;whiteSpace=wrap;" vertex="1" parent="1">
          <mxGeometry x="100" y="400" width="140" height="230" as="geometry" />
        </mxCell>
        <mxCell id="2TU4tyCa0fN-0bZY0Uv4-9" value="AppServer" style="shape=module;align=left;spacingLeft=20;align=center;verticalAlign=top;whiteSpace=wrap;html=1;" vertex="1" parent="1">
          <mxGeometry x="110" y="440" width="100" height="50" as="geometry" />
        </mxCell>
        <mxCell id="2TU4tyCa0fN-0bZY0Uv4-10" value="Build #1" style="shape=module;align=left;spacingLeft=20;align=center;verticalAlign=top;whiteSpace=wrap;html=1;" vertex="1" parent="1">
          <mxGeometry x="110" y="500" width="100" height="50" as="geometry" />
        </mxCell>
        <mxCell id="2TU4tyCa0fN-0bZY0Uv4-11" value="Build #X" style="shape=module;align=left;spacingLeft=20;align=center;verticalAlign=top;whiteSpace=wrap;html=1;" vertex="1" parent="1">
          <mxGeometry x="110" y="560" width="100" height="50" as="geometry" />
        </mxCell>
        <mxCell id="2TU4tyCa0fN-0bZY0Uv4-12" value="Preprod ENV" style="verticalAlign=top;align=center;spacingTop=8;spacingLeft=2;spacingRight=12;shape=cube;size=10;direction=south;fontStyle=0;html=1;whiteSpace=wrap;" vertex="1" parent="1">
          <mxGeometry x="344" y="400" width="140" height="230" as="geometry" />
        </mxCell>
        <mxCell id="2TU4tyCa0fN-0bZY0Uv4-13" value="AppServer" style="shape=module;align=left;spacingLeft=20;align=center;verticalAlign=top;whiteSpace=wrap;html=1;" vertex="1" parent="1">
          <mxGeometry x="354" y="440" width="100" height="50" as="geometry" />
        </mxCell>
        <mxCell id="2TU4tyCa0fN-0bZY0Uv4-14" value="Build #1" style="shape=module;align=left;spacingLeft=20;align=center;verticalAlign=top;whiteSpace=wrap;html=1;" vertex="1" parent="1">
          <mxGeometry x="354" y="500" width="100" height="50" as="geometry" />
        </mxCell>
        <mxCell id="2TU4tyCa0fN-0bZY0Uv4-15" value="Build #X" style="shape=module;align=left;spacingLeft=20;align=center;verticalAlign=top;whiteSpace=wrap;html=1;" vertex="1" parent="1">
          <mxGeometry x="354" y="560" width="100" height="50" as="geometry" />
        </mxCell>
        <mxCell id="2TU4tyCa0fN-0bZY0Uv4-16" value="Productive ENV" style="verticalAlign=top;align=center;spacingTop=8;spacingLeft=2;spacingRight=12;shape=cube;size=10;direction=south;fontStyle=0;html=1;whiteSpace=wrap;" vertex="1" parent="1">
          <mxGeometry x="580" y="400" width="140" height="230" as="geometry" />
        </mxCell>
        <mxCell id="2TU4tyCa0fN-0bZY0Uv4-17" value="AppServer" style="shape=module;align=left;spacingLeft=20;align=center;verticalAlign=top;whiteSpace=wrap;html=1;" vertex="1" parent="1">
          <mxGeometry x="590" y="440" width="100" height="50" as="geometry" />
        </mxCell>
        <mxCell id="2TU4tyCa0fN-0bZY0Uv4-18" value="Build #1" style="shape=module;align=left;spacingLeft=20;align=center;verticalAlign=top;whiteSpace=wrap;html=1;" vertex="1" parent="1">
          <mxGeometry x="590" y="500" width="100" height="50" as="geometry" />
        </mxCell>
        <mxCell id="2TU4tyCa0fN-0bZY0Uv4-19" value="Build #X" style="shape=module;align=left;spacingLeft=20;align=center;verticalAlign=top;whiteSpace=wrap;html=1;" vertex="1" parent="1">
          <mxGeometry x="590" y="560" width="100" height="50" as="geometry" />
        </mxCell>
        <mxCell id="2TU4tyCa0fN-0bZY0Uv4-20" value="&amp;lt;&amp;lt;copy&amp;gt;&amp;gt;" style="edgeStyle=orthogonalEdgeStyle;rounded=0;orthogonalLoop=1;jettySize=auto;html=1;exitX=1;exitY=0.5;exitDx=0;exitDy=0;entryX=0.09;entryY=0.5;entryDx=0;entryDy=0;entryPerimeter=0;" edge="1" parent="1" source="2TU4tyCa0fN-0bZY0Uv4-10" target="2TU4tyCa0fN-0bZY0Uv4-14">
          <mxGeometry relative="1" as="geometry" />
        </mxCell>
        <mxCell id="2TU4tyCa0fN-0bZY0Uv4-21" value="&amp;lt;&amp;lt;copy&amp;gt;&amp;gt;" style="edgeStyle=orthogonalEdgeStyle;rounded=0;orthogonalLoop=1;jettySize=auto;html=1;exitX=1;exitY=0.5;exitDx=0;exitDy=0;entryX=0.11;entryY=0.5;entryDx=0;entryDy=0;entryPerimeter=0;" edge="1" parent="1" source="2TU4tyCa0fN-0bZY0Uv4-14" target="2TU4tyCa0fN-0bZY0Uv4-18">
          <mxGeometry relative="1" as="geometry" />
        </mxCell>
      </root>
    </mxGraphModel>
  </diagram>
</mxfile>
